{"title":"Barbershop The Next Cut 2016 English HDCAM x264-Exclusive","uid":14493393,"size":762127054,"categoryP":"video","categoryS":"movies","magnet":"?xt=urn:btih:e5372b7d960a1c8c788f374896ba3a54ba6732c1&amp;dn=Barbershop+The+Next+Cut+2016+English+HDCAM+x264-Exclusive&amp;tr=udp%3A%2F%2Ftracker.leechers-paradise.org%3A6969&amp;tr=udp%3A%2F%2Fzer0day.ch%3A1337&amp;tr=udp%3A%2F%2Fopen.demonii.com%3A1337&amp;tr=udp%3A%2F%2Ftracker.coppersurfer.tk%3A6969&amp;tr=udp%3A%2F%2Fexodus.desync.com%3A6969","seeders":7,"leechers":5,"uploader":"makintos13","files":2,"time":1462133559,"description":"Barbershop The Next Cut 2016 English HDCAM x264-Exclusive\r\n\r\nScreens:\r\n \nhttps://imgmak.com/TUF\r\n \nhttps://imgmak.com/TUi\r\n \nhttps://imgmak.com/TUj\r\n \nhttps://imgmak.com/TUw\r\n\r\nFormat                      : Matroska\r\nFormat version              : Version 4 / Version 2\r\nFile size                   : 717 MiB\r\nDuration                    : 1h 48mn\r\nOverall bit rate            : 923 Kbps\r\n\r\nVideo\r\nID                          : 1\r\nFormat                      : AVC\r\nFormat/Info                 : Advanced Video Codec\r\nFormat profile              :   \r\nFormat settings, CABAC      : Yes\r\nFormat settings, ReFrames   : 4 frames\r\nCodec ID                    : V_MPEG4/ISO/AVC\r\nDuration                    : 1h 48mn\r\nBit rate                    : 800 Kbps\r\nWidth                       : 696 pixels\r\nHeight                      : 392 pixels\r\nDisplay aspect ratio        : 16:9\r\nFrame rate mode             : Constant\r\nFrame rate                  : 59.940 (60000/1001) fps\r\nColor space                 : YUV\r\nChroma subsampling          : 4:2:0\r\nBit depth                   : 8 bits\r\nScan type                   : Progressive\r\nBits/(Pixel*Frame)          : 0.049\r\nStream size                 : 626 MiB (87%)\r\n\r\n\r\nAudio\r\nID                          : 2\r\nFormat                      : AAC\r\nFormat/Info                 : Advanced Audio Codec\r\nFormat profile              : LC\r\nCodec ID                    : A_AAC\r\nDuration                    : 1h 48mn\r\nBit rate                    : 112 Kbps\r\nChannel(s)                  : 2 channels\r\nChannel positions           : Front: L R\r\nSampling rate               : 48.0 KHz\r\nFrame rate                  : 46.875 fps (1024 spf)\r\nCompression mode            : Lossy\r\nStream size                 : 87.1 MiB (12%)\r\nDefault                     : Yes\r\nForced                      : No\r\n\r\n\r\nSubtitles: Foreign hardcoded\r\nLanguage: English\r\nSample: included\r\nEnjoy\r\n\r\nPlot: As their surrounding community has taken a turn for the worse, the crew at Calvin's Barbershop come together to bring some much needed change to their neighborhood","torrent":{"xt":"urn:btih:e5372b7d960a1c8c788f374896ba3a54ba6732c1","amp;dn":"Barbershop+The+Next+Cut+2016+English+HDCAM+x264-Exclusive","amp;tr":["udp%3A%2F%2Ftracker.leechers-paradise.org%3A6969","udp%3A%2F%2Fzer0day.ch%3A1337","udp%3A%2F%2Fopen.demonii.com%3A1337","udp%3A%2F%2Ftracker.coppersurfer.tk%3A6969","udp%3A%2F%2Fexodus.desync.com%3A6969"],"infoHash":"e5372b7d960a1c8c788f374896ba3a54ba6732c1","infoHashBuffer":{"type":"Buffer","data":[229,55,43,125,150,10,28,140,120,143,55,72,150,186,58,84,186,103,50,193]},"announce":[],"urlList":[]}}